<svg xmlns="http://www.w3.org/2000/svg" width="40" height="40" viewBox="0 0 40 40"><g fill="none" fill-rule="evenodd"><path stroke="#F2EB3B" stroke-width="2" d="M7.692 1c-2.288 0-3.204.177-4.15.683a4.452 4.452 0 0 0-1.859 1.858C1.177 4.488 1 5.404 1 7.691v24.617c0 2.288.177 3.204.683 4.15a4.452 4.452 0 0 0 1.858 1.859c.947.506 1.863.683 4.15.683h24.617c2.288 0 3.204-.177 4.15-.683a4.452 4.452 0 0 0 1.859-1.858c.506-.947.683-1.863.683-4.15V7.691c0-2.288-.177-3.204-.683-4.15a4.452 4.452 0 0 0-1.858-1.859C35.512 1.177 34.596 1 32.309 1H7.691z"/><path fill="#F2EB3B" d="M21.15 26.486s.424-.046.641-.274c.199-.21.192-.605.192-.605s-.026-1.847.847-2.12c.86-.268 1.966 1.786 3.14 2.576.885.597 1.558.466 1.558.466l3.134-.043s1.64-.099.862-1.364c-.064-.104-.453-.936-2.33-2.646-1.966-1.79-1.702-1.501.665-4.598 1.441-1.886 2.018-3.038 1.837-3.53-.17-.47-1.231-.346-1.231-.346l-3.528.022s-.262-.035-.456.078c-.19.112-.312.372-.312.372s-.558 1.46-1.303 2.7c-1.571 2.62-2.199 2.758-2.456 2.595-.598-.38-.449-1.523-.449-2.335 0-2.538.393-3.596-.763-3.87-.383-.091-.666-.151-1.647-.161-1.26-.013-2.324.004-2.928.294-.402.193-.712.623-.522.648.233.03.76.14 1.04.513.362.484.35 1.568.35 1.568s.207 2.987-.486 3.358c-.475.255-1.127-.265-2.528-2.64a21.91 21.91 0 0 1-1.26-2.563s-.104-.251-.291-.386a1.447 1.447 0 0 0-.542-.214l-3.352.021s-.504.014-.689.229c-.164.19-.013.586-.013.586s2.625 6.028 5.598 9.067c2.726 2.785 5.82 2.602 5.82 2.602h1.403z"/></g></svg>