<svg xmlns="http://www.w3.org/2000/svg" width="40" height="40" viewBox="0 0 40 40"><rect width="40" height="40" rx="6" fill="#f2eb3b"/><path d="M21.151 26.486a1.2 1.2 0 0 0 .64-.275.994.994 0 0 0 .192-.605s-.026-1.847.847-2.119 1.966 1.786 3.139 2.575a2.253 2.253 0 0 0 1.559.466l3.135-.043s1.639-.1.862-1.364a10.346 10.346 0 0 0-2.33-2.646c-1.966-1.79-1.7-1.5.665-4.6 1.441-1.883 2.017-3.035 1.837-3.527-.171-.471-1.23-.348-1.23-.348l-3.53.024a.815.815 0 0 0-.456.076.979.979 0 0 0-.312.372 19.857 19.857 0 0 1-1.3 2.7c-1.571 2.618-2.2 2.757-2.456 2.595-.6-.38-.449-1.523-.449-2.336 0-2.538.393-3.6-.763-3.87a6.135 6.135 0 0 0-1.65-.161 7.762 7.762 0 0 0-2.928.3c-.4.193-.712.623-.522.648a1.594 1.594 0 0 1 1.041.514 3.29 3.29 0 0 1 .349 1.567s.208 2.988-.486 3.358c-.475.255-1.127-.265-2.529-2.641a21.911 21.911 0 0 1-1.258-2.565 1.032 1.032 0 0 0-.292-.386 1.46 1.46 0 0 0-.541-.214L9.032 14s-.504.016-.689.231c-.164.19-.013.586-.013.586s2.625 6.029 5.6 9.067a8.136 8.136 0 0 0 5.82 2.6z" fill="#363634"/></svg>