<svg xmlns="http://www.w3.org/2000/svg" width="40" height="40" viewBox="0 0 40 40"><rect width="40" height="40" rx="6" fill="#f2eb3b"/><path d="M23.232 30.513L20 27.394l-3.23 3.119a1.768 1.768 0 0 1-2.437 0 1.622 1.622 0 0 1 0-2.352l3.287-3.174a11.245 11.245 0 0 1-3.42-1.366 1.629 1.629 0 0 1-.539-2.293 1.757 1.757 0 0 1 2.375-.523 7.7 7.7 0 0 0 7.918 0 1.759 1.759 0 0 1 2.376.523 1.629 1.629 0 0 1-.54 2.293 11.213 11.213 0 0 1-3.415 1.365l3.288 3.174a1.62 1.62 0 0 1 0 2.352 1.765 1.765 0 0 1-2.435 0zM14.1 14.677A5.789 5.789 0 0 1 19.985 9a5.788 5.788 0 0 1 5.881 5.677 5.787 5.787 0 0 1-5.881 5.676 5.788 5.788 0 0 1-5.885-5.676zm3.446 0a2.4 2.4 0 0 0 2.435 2.35 2.4 2.4 0 0 0 2.439-2.35 2.4 2.4 0 0 0-2.435-2.35 2.4 2.4 0 0 0-2.435 2.35z" fill="#363634"/></svg>