<svg xmlns="http://www.w3.org/2000/svg" width="40" height="40" viewBox="0 0 40 40"><rect width="40" height="40" rx="6" fill="#f2eb3b"/><path d="M19.341 15.882l.046.761-.769-.093a12.515 12.515 0 0 1-7.325-3.6l-1.016-1.014-.262.746a4.484 4.484 0 0 0 .954 4.6c.616.652.477.746-.585.357a1.815 1.815 0 0 0-.723-.171 5.566 5.566 0 0 0 .554 2.082 4.969 4.969 0 0 0 2.108 1.989l.754.357-.893.016c-.862 0-.893.016-.8.342a4.652 4.652 0 0 0 2.879 2.546l.954.326-.831.5a8.664 8.664 0 0 1-4.124 1.15A4.557 4.557 0 0 0 9 26.9a11.707 11.707 0 0 0 2.97 1.367 13 13 0 0 0 10.095-1.15 13.51 13.51 0 0 0 5.124-6.028 16.025 16.025 0 0 0 1.046-4.661c0-.715.046-.808.908-1.662a10.145 10.145 0 0 0 1.077-1.2c.154-.3.138-.3-.646-.031-1.308.466-1.493.4-.846-.3a4.519 4.519 0 0 0 1.047-1.657c0-.047-.231.031-.492.171a8.585 8.585 0 0 1-1.354.528l-.831.264-.755-.512a6.264 6.264 0 0 0-1.308-.684 5.257 5.257 0 0 0-2.693.062 4.448 4.448 0 0 0-3.001 4.475z" fill="#363634"/></svg>