<svg width="171" height="56" viewBox="0 0 171 56" xmlns="http://www.w3.org/2000/svg"><title>logos / crpt-white</title><g fill="#FFF" fill-rule="evenodd"><path d="M53.136 24.306v-8.46h1.188v7.364h1.75v-7.365h1.188v7.365h.5v2.476h-1.094v-1.38zM59.607 19.386h1.688v-1.77c0-.503-.251-.752-.752-.752h-.186c-.5 0-.75.249-.75.752v1.77zm0 1.129v2.021c0 .501.25.752.75.752h.218c.5 0 .75-.25.75-.752v-.971h1.157v.923c0 1.27-.64 1.914-1.907 1.914h-.25c-1.265 0-1.906-.645-1.906-1.914v-4.825c0-1.27.641-1.911 1.906-1.911h.25c1.266 0 1.907.641 1.907 1.91v2.853h-2.875zM64.718 19.417h1.748v-3.571h1.19v8.46h-1.19v-3.792h-1.748v3.792H63.53v-8.46h1.188zM69.813 24.306V16.94h-1.55v-1.096h4.284v1.096H71v7.365zM74.346 22.833c.326.283.702.44 1.093.44.437 0 .688-.205.688-.69v-5.014c0-.486-.25-.69-.688-.69-.391 0-.767.158-1.093.44v5.514zm-1.189-6.987h1.189v.547c.28-.297.763-.642 1.451-.642 1.016 0 1.517.673 1.517 1.677v5.296c0 1.003-.501 1.677-1.517 1.677-.688 0-1.171-.33-1.451-.61v2.24h-1.189V15.845zM81.47 22.833c.329.283.704.44 1.096.44.436 0 .686-.205.686-.69v-5.014c0-.486-.25-.69-.686-.69-.392 0-.767.158-1.095.44v5.514zm-1.187-6.987h1.188v.547a1.98 1.98 0 0 1 1.452-.642c1.017 0 1.518.673 1.518 1.677v5.296c0 1.003-.5 1.677-1.518 1.677-.688 0-1.171-.33-1.452-.61v2.24h-1.188V15.845zM88.316 22.88v-2.756l-1.079.374c-.436.173-.578.393-.578.878v1.285c0 .407.204.611.578.611.36 0 .688-.124 1.079-.391zm-2.844-1.519c0-1.05.344-1.475 1.25-1.786l1.594-.55v-1.41c0-.502-.252-.768-.752-.768h-.092c-.5 0-.75.266-.75.769v1.049h-1.156v-1.003c0-1.269.64-1.91 1.906-1.91h.125c1.265 0 1.906.641 1.906 1.91v6.644h-1.187v-.533c-.33.315-.766.628-1.453.628-.954 0-1.391-.547-1.391-1.488V21.36zM93.365 21.281c0-.5-.235-.735-.72-.735h-.922v-1.08h.922c.469 0 .704-.252.704-.738v-1.175c0-.486-.235-.72-.704-.72h-.25c-.377 0-.704.218-.704.704v1.16H90.52v-1.019c0-1.3.624-1.926 1.906-1.926h.219c1.234 0 1.858.61 1.858 1.88v.987c0 .783-.248 1.16-.811 1.363.5.108.843.486.843 1.16v1.363c0 1.268-.64 1.896-1.89 1.896h-.235c-1.282 0-1.89-.61-1.89-1.896v-1.254h1.171v1.347c0 .486.234.721.704.721h.25c.485 0 .72-.235.72-.72V21.28zM98.444 21.281c0-.5-.235-.735-.72-.735h-.937v2.664h.936c.486 0 .721-.235.721-.721V21.28zm-1.657-1.816h.905c.47 0 .705-.251.705-.737v-1.066c0-.484-.235-.721-.705-.721h-.905v2.524zm-1.188 4.84v-8.46h2.328c1.093 0 1.64.533 1.64 1.661v1.113c0 .783-.249 1.16-.811 1.363.499.108.875.486.875 1.16v1.487c0 1.128-.563 1.676-1.673 1.676H95.6zM101.85 21.47l1.704-5.625h1.405v8.46h-1.155v-6.11l-1.829 6.11h-1.28v-8.46h1.155zM107.116 24.306V16.94h-1.546v-1.096h4.28v1.096h-1.546v7.365zM111.62 21.47l1.7-5.625h1.408v8.46h-1.157v-6.11l-1.828 6.11h-1.281v-8.46h1.157zM116.994 19.026c0 .486.234.72.719.72h.89v-2.804h-.89c-.485 0-.719.236-.719.72v1.364zm1.078 1.817c-.641 0-1.078.266-1.078.941v1.16c0 .954-.328 1.362-1.188 1.362h-.47V23.21c.298 0 .47-.126.47-.487v-1.002c0-.642.298-1.034.688-1.253-.47-.267-.688-.767-.688-1.489v-1.426c0-1.144.579-1.708 1.718-1.708h2.266v8.46h-1.186v-3.462h-.532zM57.262 29.95v8.462h-1.188v-7.364h-1.75v7.364h-1.188V29.95zM59.512 33.492H61.2v-1.77c0-.502-.25-.752-.749-.752h-.187c-.5 0-.752.25-.752.752v1.77zm0 1.128v2.021c0 .501.251.754.752.754h.219c.5 0 .75-.253.75-.754v-.97h1.156v.924c0 1.269-.641 1.913-1.906 1.913h-.251c-1.266 0-1.906-.644-1.906-1.913v-4.828c0-1.268.64-1.91 1.906-1.91h.25c1.266 0 1.907.642 1.907 1.91v2.853h-2.877zM64.624 36.94c.327.282.702.438 1.093.438.438 0 .689-.204.689-.69v-5.013c0-.487-.251-.69-.689-.69-.39 0-.766.157-1.093.438v5.516zm-1.188-6.99h1.188v.55c.28-.3.765-.643 1.452-.643 1.017 0 1.517.674 1.517 1.676v5.297c0 1.003-.5 1.678-1.517 1.678-.687 0-1.172-.33-1.452-.613v2.24h-1.188V29.952zM71.531 31.722c0-.502-.25-.752-.749-.752h-.22c-.5 0-.749.25-.749.752v4.92c0 .5.25.753.75.753h.234c.5 0 .75-.253.75-.754v-1.676h1.172v1.63c0 1.269-.642 1.913-1.906 1.913h-.28c-1.268 0-1.909-.644-1.909-1.913v-4.828c0-1.267.64-1.91 1.909-1.91h.294c1.25 0 1.876.627 1.876 1.88v1.379H71.53v-1.394zM77.891 29.95v8.462h-1.187v-7.364h-1.75v7.364h-1.187V29.95zM80.143 33.492h1.688v-1.77c0-.502-.251-.752-.75-.752h-.188c-.5 0-.75.25-.75.752v1.77zm0 1.128v2.021c0 .501.25.754.75.754h.218c.5 0 .75-.253.75-.754v-.97h1.158v.924c0 1.269-.642 1.913-1.908 1.913h-.25c-1.265 0-1.906-.644-1.906-1.913v-4.828c0-1.268.641-1.91 1.906-1.91h.25c1.266 0 1.908.642 1.908 1.91v2.853h-2.876zM87.971 38.412c-.859 0-1.187-.407-1.187-1.363V35.56c0-.672-.437-.94-1.077-.94h-.454v3.792h-1.188V29.95h1.188v3.573h.501c.623 0 .968-.282.968-1.238v-.971c0-.957.39-1.364 1.264-1.364h.314v1.098c-.297 0-.452.123-.452.483v1.083c0 .753-.284 1.268-.767 1.44.483.205.875.613.875 1.364v1.41c0 .362.188.487.484.487v1.096h-.469zM90.175 38.412v-7.363h-1.548V29.95h4.283v1.098h-1.547v7.363zM94.676 35.576l1.704-5.625h1.406v8.46H96.63v-6.11l-1.826 6.11h-1.282v-8.46h1.155zM101.74 35.388c0-.5-.235-.736-.72-.736h-.935v2.664h.935c.485 0 .72-.236.72-.72v-1.208zm-1.655-1.817h.905c.47 0 .704-.253.704-.736v-1.068c0-.484-.235-.719-.704-.719h-.905v2.523zm-1.189 4.84v-8.46h2.329c1.093 0 1.64.533 1.64 1.66v1.113c0 .785-.25 1.16-.812 1.363.499.11.875.485.875 1.16v1.49c0 1.127-.563 1.675-1.673 1.675h-2.359zM105.179 33.524h1.75V29.95h1.187v8.46h-1.186V34.62h-1.751v3.793h-1.188V29.95h1.188zM113.898 38.412h1.189V29.95h-1.19v8.46zm-1.857-3.353c0-.486-.22-.704-.704-.704h-.922v2.961h.922c.484 0 .704-.22.704-.705V35.06zm-1.626-1.804h1.124c1.14 0 1.688.55 1.688 1.68v1.801c0 1.128-.548 1.676-1.688 1.676h-2.312V29.95h1.188v3.304zM115.712 38.412l1.564-4.137-1.532-4.324h1.25l.985 2.977.985-2.977h1.217l-1.546 4.137 1.579 4.324h-1.25l-1.017-2.993-1.016 2.993zM123.775 38.412v-7.363h-1.544V29.95h4.28v1.098h-1.547v7.363zM128.262 33.492h1.688v-1.77c0-.502-.25-.752-.75-.752h-.187c-.501 0-.75.25-.75.752v1.77zm0 1.128v2.021c0 .501.25.754.751.754h.219c.499 0 .748-.253.748-.754v-.97h1.159v.924c0 1.269-.641 1.913-1.907 1.913h-.251c-1.264 0-1.906-.644-1.906-1.913v-4.828c0-1.268.642-1.91 1.906-1.91h.25c1.267 0 1.908.642 1.908 1.91v2.853h-2.877zM131.545 38.412l1.562-4.137-1.532-4.324h1.252l.984 2.977.984-2.977h1.219l-1.547 4.137 1.578 4.324h-1.25l-1.017-2.993-1.015 2.993zM137.859 33.524h1.748V29.95h1.19v8.46h-1.19V34.62h-1.748v3.793h-1.189V29.95h1.189zM143.796 30.97c-.499 0-.75.25-.75.752v4.92c0 .5.251.753.75.753h.281c.5 0 .75-.253.75-.754v-4.919c0-.502-.25-.752-.75-.752h-.28zm-.03 7.538c-1.266 0-1.907-.644-1.907-1.913v-4.828c0-1.267.64-1.91 1.907-1.91h.343c1.266 0 1.907.643 1.907 1.91v4.828c0 1.269-.641 1.913-1.907 1.913h-.343zM148.75 36.282c0 1.237-.343 2.13-1.562 2.13h-.657v-1.096h.235c.532 0 .796-.205.796-1.002V29.95h3.703v8.461h-1.186V31.05h-1.33v5.233zM154.268 30.97c-.502 0-.752.25-.752.752v4.92c0 .5.25.753.752.753h.28c.5 0 .75-.253.75-.754v-4.919c0-.502-.25-.752-.75-.752h-.28zm-.033 7.538c-1.265 0-1.905-.644-1.905-1.913v-4.828c0-1.267.64-1.91 1.905-1.91h.344c1.266 0 1.908.643 1.908 1.91v4.828c0 1.269-.642 1.913-1.908 1.913h-.344zM160.706 29.95v1.098h-1.97v7.364h-1.187V29.95zM162.472 35.576l1.703-5.625h1.406v8.46h-1.155v-6.11l-1.828 6.11h-1.283v-8.46h1.157zM167.442 27.6h.874v.392c0 .329.156.486.485.486h.065c.327 0 .482-.157.482-.486v-.391h.875v.391c0 .893-.406 1.3-1.297 1.3h-.187c-.891 0-1.297-.407-1.297-1.3v-.391zm.406 7.976l1.703-5.625h1.407v8.46H169.8v-6.11l-1.827 6.11h-1.283v-8.46h1.157v5.625zM10.358 55.782H0V45.107h2.5v8.17h7.858zM2.5 9.702H0V0h10.358v2.505H2.5zM55.631 55.782h-9.387v-2.505h6.887v-8.17h2.5zM55.631 9.702h-2.5V2.505h-6.887V0h9.387zM10.76 18.226h7.416V10.79H10.76v7.436zm-1.482 1.486h10.38V9.302H9.279v10.41z"/><path d="M12.243 16.739h4.45v-4.462h-4.45zM37.456 18.226h7.415V10.79h-7.415v7.436zm-1.484 1.486h10.382V9.302H35.972v10.41z"/><path d="M38.938 16.739h4.45v-4.462h-4.45zM10.76 44.993h7.416v-7.436H10.76v7.436zM9.278 46.48h10.38V36.07H9.279V46.48z"/><path d="M12.244 43.505h4.449v-4.461h-4.449zM35.972 37.557h1.483v-1.486h-1.483zM33.007 10.79h1.482V9.303h-1.482zM25.592 10.79H28.561V9.303h-4.452v1.487h1.482zM31.524 12.277h1.483V10.79h-1.483V9.303H30.04v4.461h1.483zM33.007 15.251v1.487h1.482v-2.974h-2.965v1.487zM33.007 21.199h1.482v-2.973h-1.482v1.486zM18.176 25.661h1.483v-1.488h-1.483zM18.176 28.635h1.483v-1.487h-1.483z"/><path d="M16.692 25.66v-1.487H15.21v2.973h1.482v.001h1.484v-1.486zM34.489 31.61h1.483v-1.488H34.49zM21.142 28.635H19.66v1.487h-1.483v-1.487h-1.484v4.461h1.484V31.61h2.966v-1.487h1.485v-1.487zM18.176 34.584h1.483v-1.488h-1.483zM24.109 40.532h1.483v-1.488h-1.483zM33.007 44.993h1.482v-1.488h-1.482zM34.489 46.48h1.483v-1.487H34.49z"/><path d="M19.659 22.686V21.2h-7.415v1.487H10.76V21.2H9.279v2.974h5.931v-1.487zM31.524 37.557v-2.973h-4.446v1.487h1.48v1.486h-1.484v1.487h.003v1.487h1.484v-1.487h1.48v-1.487zM44.87 22.686h-1.482v2.975h1.483v1.487h-2.965v1.487h1.482v2.974h1.483v1.488h1.483v-2.975h-1.483v-1.487h1.483v-4.462h-1.483zM30.04 44.993h1.484v-1.488H30.04zM24.109 24.173h-1.482v-1.487h2.965v-4.461h-1.483V21.2h-1.483v1.487h-1.484v1.487h1.484v1.488h-2.967v1.486h2.968v-1.486h2.965v-1.488zM25.592 42.019v4.461h1.482v-2.975h1.483v-1.486h-1.483zM13.727 31.61h-1.483v-2.975h1.483V31.133h.001v.476zm1.483 1.486v-4.461h-1.482v-1.487h-2.967v7.435h5.931v-1.487H15.21zM24.109 34.584v-2.975h-1.483v1.487h-1.484v2.975h1.484v-.001 1.487h-1.484V43.505h1.484v1.487h-1.484v1.487h2.967v-5.947h-1.483v-1.487h1.483v-1.488h1.483v-2.973z"/><path d="M43.388 43.505v-1.486h1.483v2.973h-2.965V43.505h-2.967v-1.486h1.482v-1.487h1.485v2.973h1.482zm-8.899-4.46h4.45v-4.461h-4.45v4.46zm11.865-1.488V36.07h-2.966v-2.974h-1.482v1.487H40.42v-1.487H38.94v-1.488h1.482v1.488h1.485v-4.462H40.42v1.487H38.94v-1.487h1.482v-1.487H38.94V25.66h2.967v-1.488h-2.967v-1.487h4.449V21.2h-7.416v1.487h1.484v1.487h-1.484v-1.487H34.49v2.975h-1.482v-1.488H30.04v-1.487h-1.483v-4.461h1.483V21.2h1.484v-2.974h1.483v-1.487H30.04v-2.974h-1.483v2.974h-1.482v-2.974h-1.483v1.487h-2.966v-1.487h1.483v-1.487h-2.967V21.2h1.483v-2.974h1.484v-1.487h1.483v1.487h1.482v5.948h1.483v1.487h-2.965V27.152H24.11v4.458h1.483v2.975h1.482v-2.975h1.487v-1.487H25.592V28.635h2.969v-1.487h1.48V25.66h1.483v1.49H30.04v1.487h1.484v-.003h1.483v1.487h1.482v-2.974h1.483V25.66h1.484v1.487h-1.484v1.487h1.484v4.462h-4.449v-2.975h-1.483v1.487H30.04v1.488h1.484v1.487h1.483v4.46H30.04v1.488h1.484v2.973h1.483v-1.486h4.449v1.486h-1.484v1.487h1.484v1.487H46.354V39.044H44.87v1.488h-1.483v-1.488h-1.482v-1.487h1.482v1.487h1.483v-1.487h1.483z"/></g></svg>