<svg xmlns="http://www.w3.org/2000/svg" width="49.995" height="50" viewBox="0 0 49.995 50"><g fill="#363634"><path d="M24.167 41.617h1.662v1.662h-1.662zm-10.8-38.221h1.662v1.66h-1.662zm3.323 0h1.662v1.66H16.69zm3.324 0h1.662v1.66h-1.662z"/><path d="M49.092 43.207h-.986V11.086a4.446 4.446 0 0 0-4.441-4.44h-3.636v-3.25a3.4 3.4 0 0 0-3.4-3.4H13.366a3.4 3.4 0 0 0-3.4 3.4v3.25H6.33a4.445 4.445 0 0 0-4.44 4.44v32.121H.897a.9.9 0 0 0-.9.9V46.6a3.4 3.4 0 0 0 3.4 3.4h43.2a3.4 3.4 0 0 0 3.4-3.4v-2.49a.9.9 0 0 0-.905-.903zM11.775 3.396a1.59 1.59 0 0 1 1.588-1.59h23.265a1.59 1.59 0 0 1 1.588 1.59v3.25H11.775zm0 5.059h26.442v24.023a1.59 1.59 0 0 1-1.588 1.588H13.366a1.59 1.59 0 0 1-1.588-1.588zm-8.161 2.631a2.719 2.719 0 0 1 2.717-2.715h3.636v24.107a3.4 3.4 0 0 0 3.4 3.4h23.265a3.4 3.4 0 0 0 3.4-3.4V8.37h3.636a2.717 2.717 0 0 1 2.714 2.715v27.133H3.617zm0 28.943h42.761v3.178h-13.9a.9.9 0 0 0-.637.263l-1.4 1.4H19.557l-1.4-1.4a.915.915 0 0 0-.637-.261H3.62zm44.576 6.574a1.594 1.594 0 0 1-1.593 1.592h-43.2a1.592 1.592 0 0 1-1.588-1.592v-1.588h15.34l1.4 1.4a.9.9 0 0 0 .636.263h11.633a.9.9 0 0 0 .637-.263l1.4-1.4h15.343z"/><path d="M29.734 17.179v1.915h1.615v-1.915a2.393 2.393 0 0 0-2.386-2.387h-1.932v1.619h1.928a.776.776 0 0 1 .775.768zm0 8.155a.781.781 0 0 1-.775.775h-1.928v1.615h1.928a2.392 2.392 0 0 0 2.384-2.387v-1.936h-1.614zm-9.699-8.154a.776.776 0 0 1 .768-.777h1.928v-1.615h-1.928a2.387 2.387 0 0 0-2.379 2.386v1.917h1.614zm.762 10.534h1.928v-1.615h-1.921a.77.77 0 0 1-.768-.769v-1.932H18.42v1.936a2.385 2.385 0 0 0 2.377 2.38zm-.289-6.063l3.444 3.444 5.3-5.3-1.141-1.14-4.163 4.168-2.3-2.305z"/></g></svg>