<svg xmlns="http://www.w3.org/2000/svg" width="50" height="48.324" viewBox="0 0 50 48.324"><path d="M46.849 0h-43.7A3.16 3.16 0 0 0-.005 3.159v31.906a3.187 3.187 0 0 0 3.154 3.211h16.956l-.017.225c-.2 2.882-1.283 4.58-3.176 5.04l-2.872.01a2.387 2.387 0 0 0 0 4.773h21.909a2.387 2.387 0 0 0 0-4.773l-2.726.005c-2.033-.475-3.119-2.127-3.322-5.055l-.015-.225h16.956a3.185 3.185 0 0 0 3.151-3.211V3.159A3.158 3.158 0 0 0 46.849 0zM35.954 47.012H14.046a1.075 1.075 0 0 1-.008-2.149l1.428.049a.564.564 0 0 0 .245.062h18.581a.606.606 0 0 0 .292-.086l.047-.025h1.324a1.075 1.075 0 0 1 0 2.149zm9.432-42.4v25.533H4.614V4.617zm.631-1.265H3.983a.63.63 0 0 0-.631.631v26.167H1.263V3.159a1.9 1.9 0 0 1 1.891-1.9h43.7a1.9 1.9 0 0 1 1.889 1.9V30.15h-2.089V3.978a.631.631 0 0 0-.637-.626zm.83 33.631H29.593l-.049-.029a.6.6 0 0 0-.319-.106h-8.453a.6.6 0 0 0-.317.106l-.05.029H3.154a1.905 1.905 0 0 1-1.891-1.918v-3.482h47.475v3.491a1.906 1.906 0 0 1-1.89 1.909zm-27.375 6.573l.289-.344a8.056 8.056 0 0 0 1.614-4.734l.013-.2h7.227l.013.195a8.043 8.043 0 0 0 1.616 4.736l.287.344z"/><path d="M27.576 33.5h-5.151a.715.715 0 0 0 0 1.424h5.151a.715.715 0 0 0 0-1.424zM14.883 20.688h6.841a.65.65 0 0 0 .643-.656v-3.463a.651.651 0 0 0-.643-.656h-6.837a.651.651 0 0 0-.644.656v3.463a.65.65 0 0 0 .64.656zm.646-1.314v-2.149h5.545v2.149z"/><path d="M11.518 24.038h19.515l.862 2.877a.642.642 0 0 0 .456.44.658.658 0 0 0 .611-.168l1.352-1.352 2.2 2.2a.636.636 0 0 0 .456.186.63.63 0 0 0 .45-.184l2.406-2.406a.647.647 0 0 0 0-.911l-2.2-2.2 1.292-1.288a.645.645 0 0 0 .166-.614.636.636 0 0 0-.435-.455l-2.884-.862V7.352a.635.635 0 0 0-.634-.651H11.518a.635.635 0 0 0-.632.636v16.065a.635.635 0 0 0 .632.636zm22.976-5.115l-4.354-1.31a.653.653 0 0 0-.632.161.64.64 0 0 0-.164.637l1.307 4.354h-18.5V12.313h22.342zm1.854 3.068a.736.736 0 0 0-.223.532.75.75 0 0 0 .221.533l2.123 2.121-1.5 1.5-2.018-2.02a.892.892 0 0 0-.325-.206.857.857 0 0 0-.309-.055.9.9 0 0 0-.639.263l-.862.862-.609-2.03v-.042a.636.636 0 0 0-.01-.23l-1.179-3.944 3.926 1.181a.459.459 0 0 0 .176.008h.044l2.085.621zm-24.2-10.982V8.003H34.49v3.006z"/></svg>