<svg xmlns="http://www.w3.org/2000/svg" width="33.206" height="50" viewBox="0 0 33.206 50"><g fill="#363634"><path d="M16.603 23.437a.977.977 0 1 0 .977.977.978.978 0 0 0-.977-.977"/><path d="M32.229 40.235H29.3a3.912 3.912 0 0 0-3.909 3.9 3.906 3.906 0 1 1-7.812 0h.977a4.889 4.889 0 0 0 4.884-4.884v-9.885l1.819-11.834a8.789 8.789 0 0 0-.842-17.537H8.791a8.789 8.789 0 0 0-.845 17.537l1.821 11.834v9.891a4.887 4.887 0 0 0 4.882 4.884h.972a5.86 5.86 0 0 0 11.719 0 1.956 1.956 0 0 1 1.956-1.954h2.928a.976.976 0 1 0 0-1.951zM8.791 15.626a6.836 6.836 0 1 1 0-13.672h15.63a6.836 6.836 0 0 1 0 13.672H8.791zm1.139 1.951h5.691v2.93a.977.977 0 0 0 1.954 0v-2.93h5.7l-1.654 10.742H11.58zm6.673 24.609h-1.954a2.933 2.933 0 0 1-2.93-2.93v-8.983h9.768v8.984a2.934 2.934 0 0 1-2.93 2.93z"/><path d="M24.417 5.856H8.791a2.93 2.93 0 1 0 0 5.861h15.626a2.93 2.93 0 0 0 0-5.861zm0 3.907H8.791a.977.977 0 0 1 0-1.954h15.626a.977.977 0 0 1 0 1.954z"/></g></svg>