<svg xmlns="http://www.w3.org/2000/svg" width="45.16" height="50" viewBox="0 0 45.16 50"><g fill="#363634"><path d="M27.416 5.979l3.7 3.7h-3.7zM1.611 4.839h24.2v5.644a.8.8 0 0 0 .805.807h5.644v6.451h1.615v-7.259a.81.81 0 0 0-.238-.569l-6.451-6.45a.8.8 0 0 0-.569-.24H4.837V1.615h30.644v17.74h1.616V.806A.806.806 0 0 0 36.288 0H4.029a.8.8 0 0 0-.8.806v2.418H.811a.81.81 0 0 0-.807.811v45.158A.807.807 0 0 0 .811 50h27.415v-1.613H1.616z"/><path d="M27.416 5.979l3.7 3.7h-3.7zM1.611 4.839h24.2v5.644a.8.8 0 0 0 .805.807h5.644v6.451h1.615v-7.259a.81.81 0 0 0-.238-.569l-6.451-6.45a.8.8 0 0 0-.569-.24H4.837V1.615h30.644v17.74h1.616V.806A.806.806 0 0 0 36.288 0H4.029a.8.8 0 0 0-.8.806v2.418H.811a.81.81 0 0 0-.807.811v45.158A.807.807 0 0 0 .811 50h27.415v-1.613H1.616z"/><path d="M43.552 38.059a7.276 7.276 0 0 1-3.66 6.3l-6.828 3.9-6.822-3.9a7.271 7.271 0 0 1-3.662-6.3V25.806h.407a13.67 13.67 0 0 0 10.077-4.413 13.682 13.682 0 0 0 10.079 4.413h.409zm.8-13.866h-1.213a12.053 12.053 0 0 1-9.292-4.353l-.167-.2a.84.84 0 0 0-1.242 0l-.16.194a12.057 12.057 0 0 1-9.3 4.355h-1.211a.806.806 0 0 0-.807.8v13.063a8.885 8.885 0 0 0 4.471 7.7l7.226 4.131a.8.8 0 0 0 .4.105.811.811 0 0 0 .4-.105l7.222-4.131a8.877 8.877 0 0 0 4.471-7.7V24.997a.8.8 0 0 0-.806-.8"/><path d="M43.552 38.059a7.276 7.276 0 0 1-3.66 6.3l-6.828 3.9-6.822-3.9a7.271 7.271 0 0 1-3.662-6.3V25.806h.407a13.67 13.67 0 0 0 10.077-4.413 13.682 13.682 0 0 0 10.079 4.413h.409zm.8-13.866h-1.213a12.053 12.053 0 0 1-9.292-4.353l-.167-.2a.84.84 0 0 0-1.242 0l-.16.194a12.057 12.057 0 0 1-9.3 4.355h-1.211a.806.806 0 0 0-.807.8v13.063a8.885 8.885 0 0 0 4.471 7.7l7.226 4.131a.8.8 0 0 0 .4.105.811.811 0 0 0 .4-.105l7.222-4.131a8.877 8.877 0 0 0 4.471-7.7V24.997a.8.8 0 0 0-.806-.8"/><path d="M33.062 42.74a7.257 7.257 0 1 1 7.257-7.255 7.261 7.261 0 0 1-7.257 7.255m0-16.127a8.871 8.871 0 1 0 8.873 8.872 8.879 8.879 0 0 0-8.873-8.872"/><path d="M33.062 42.74a7.257 7.257 0 1 1 7.257-7.255 7.261 7.261 0 0 1-7.257 7.255m0-16.127a8.871 8.871 0 1 0 8.873 8.872 8.879 8.879 0 0 0-8.873-8.872"/><path d="M32.102 37.799l-1.033-1.793-1.4.8 1.711 2.962a.8.8 0 0 0 .493.378.781.781 0 0 0 .893-.355l4.424-7.164-1.371-.849z"/><path d="M32.102 37.799l-1.033-1.793-1.4.8 1.711 2.962a.8.8 0 0 0 .493.378.781.781 0 0 0 .893-.355l4.424-7.164-1.371-.849zM3.226 12.901h20.969v1.615H3.226z"/><path d="M3.226 12.901h20.969v1.615H3.226zm0 3.229h20.969v1.611H3.226z"/><path d="M3.226 16.13h20.969v1.611H3.226zm0 3.224h20.969v1.613H3.226z"/><path d="M3.226 19.354h20.969v1.613H3.226zm0 3.228h16.128v1.613H3.226z"/><path d="M3.226 22.582h16.128v1.613H3.226zm0 3.224h16.128v1.613H3.226z"/><path d="M3.226 25.806h16.128v1.613H3.226zm0 3.227h16.128v1.613H3.226z"/><path d="M3.226 29.033h16.128v1.613H3.226zm0 9.677h16.128v1.615H3.226z"/><path d="M3.226 38.71h16.128v1.615H3.226zm0 3.224h16.128v1.615H3.226z"/><path d="M3.226 41.934h16.128v1.615H3.226zm0 3.228h16.128v1.615H3.226z"/><path d="M3.226 45.162h16.128v1.615H3.226zm.803-38.709h1.616v1.613H4.029z"/><path d="M4.029 6.453h1.616v1.613H4.029zm3.23 0h1.613v1.613H7.259z"/><path d="M7.259 6.453h1.613v1.613H7.259zm3.225 0h1.615v1.613h-1.615z"/><path d="M10.484 6.453h1.615v1.613h-1.615zm3.224 0h10.486v1.613H13.708z"/><path d="M13.708 6.453h10.486v1.613H13.708z"/></g></svg>