<svg xmlns="http://www.w3.org/2000/svg" width="20" height="18" viewBox="0 0 20 18"><path d="M14 18c-3.364 0-6-3.378-6-4s2.636-4 6-4a6.746 6.746 0 0 1 4.242 1.8A5.693 5.693 0 0 1 20 14a5.7 5.7 0 0 1-1.758 2.2A6.746 6.746 0 0 1 14 18zm0-6.5a2.478 2.478 0 0 0-1.973.964 2.523 2.523 0 0 0-.434 2.192 2.474 2.474 0 0 0 1.75 1.75 2.681 2.681 0 0 0 .668.086A2.485 2.485 0 0 0 16.5 14H15a1 1 0 0 1-1-1zm-5.938.5H2a2 2 0 0 1-2-2V2a2 2 0 0 1 2-2h16a2 2 0 0 1 2 2v8a2.022 2.022 0 0 1-.656 1.469A8.225 8.225 0 0 0 14 9a8.539 8.539 0 0 0-5.938 3zM16 4a2 2 0 1 0 2 2 2 2 0 0 0-2-2zm-6 0a2 2 0 1 0 2 2 2 2 0 0 0-2-2zM4 4a2 2 0 1 0 2 2 2 2 0 0 0-2-2z" fill="#ccc"/></svg>