<svg xmlns="http://www.w3.org/2000/svg" width="36.02" height="46.033" viewBox="0 0 36.02 46.033"><path d="M36 46.033H0v-46h24.781A1.265 1.265 0 0 1 24.907 0h.038a.826.826 0 0 1 .243.032h.219l.157.156a.972.972 0 0 1 .281.282l9.781 9.781a.549.549 0 0 1 .063.062h.031a.415.415 0 0 1 .063.063l.032.031a.241.241 0 0 1 .031.063l.157.156v.188a1.027 1.027 0 0 1 0 .406v34.812zm-34-44v42h32v-32H24v-10zm24 1.436v6.563h6.563zM13 38.032H7v-6h6v6zm-4-4v2h2v-2zm20 2H15v-2h14v2zm-16-6H7v-6h6v6zm-4-4v2h2v-2zm20 2H15v-2h14v2zm-16-6H7v-6h6v6zm-4-4v2h2v-2zm20 2H15v-2h14v2z" fill="#363634"/></svg>