<svg xmlns="http://www.w3.org/2000/svg" width="37.271" height="50" viewBox="0 0 37.271 50"><g fill="#363634"><path d="M8.25 19.324v-1.932a8.83 8.83 0 0 1-3.215-6.763 8.855 8.855 0 1 1 17.71 0 8.653 8.653 0 0 1-2.1 5.631 7.175 7.175 0 0 1 1.778.32 10.218 10.218 0 0 0 1.926-6.114 10.463 10.463 0 1 0-20.926 0 10.652 10.652 0 0 0 4.827 8.859"/><path d="M8.25 19.324v-1.932a8.83 8.83 0 0 1-3.215-6.763 8.855 8.855 0 1 1 17.71 0 8.653 8.653 0 0 1-2.1 5.631 7.175 7.175 0 0 1 1.778.32 10.218 10.218 0 0 0 1.926-6.114 10.463 10.463 0 1 0-20.926 0 10.652 10.652 0 0 0 4.827 8.859"/><path d="M21.122 10.423a7.235 7.235 0 0 0-14.469 0 6.969 6.969 0 0 0 1.6 4.481v-4.481a5.628 5.628 0 0 1 11.256 0v4.481a6.928 6.928 0 0 0 1.611-4.481"/><path d="M21.122 10.423a7.235 7.235 0 0 0-14.469 0 6.969 6.969 0 0 0 1.6 4.481v-4.481a5.628 5.628 0 0 1 11.256 0v4.481a6.928 6.928 0 0 0 1.611-4.481"/><path d="M33.241 22.586a3.923 3.923 0 0 0-2.418.814 3.991 3.991 0 0 0-4.029-4.032 4.449 4.449 0 0 0-2.747.958 3.986 3.986 0 0 0-6.125-1.771v-8.069a4.03 4.03 0 1 0-8.059 0V24.84c-3.22-2.9-6.77-5.156-9.029-2.9-3.22 3.225 3.552 9.518 8.7 19.028 3.708 6.615 8.873 9.033 14.027 9.033a13.692 13.692 0 0 0 13.705-13.7v-9.68a3.989 3.989 0 0 0-4.03-4.032m2.416 7.582v6.13a12.393 12.393 0 0 1-12.086 12.085c-6.123 0-9.671-3.388-12.571-8.064C4.707 29.678.188 24.844 1.969 23.074s6.125 2.091 9.508 5.634V10.486a2.417 2.417 0 1 1 4.834 0v16.937h1.612v-5.648a2.42 2.42 0 0 1 4.841 0v4.034h1.606v-2.416a2.42 2.42 0 1 1 4.841 0v4.03h1.612v-.812a2.417 2.417 0 1 1 4.834 0z"/><path d="M33.241 22.586a3.923 3.923 0 0 0-2.418.814 3.991 3.991 0 0 0-4.029-4.032 4.449 4.449 0 0 0-2.747.958 3.986 3.986 0 0 0-6.125-1.771v-8.069a4.03 4.03 0 1 0-8.059 0V24.84c-3.22-2.9-6.77-5.156-9.029-2.9-3.22 3.225 3.552 9.518 8.7 19.028 3.708 6.615 8.873 9.033 14.027 9.033a13.692 13.692 0 0 0 13.705-13.7v-9.68a3.989 3.989 0 0 0-4.03-4.032m2.416 7.582v6.13a12.393 12.393 0 0 1-12.086 12.085c-6.123 0-9.671-3.388-12.571-8.064C4.707 29.678.188 24.844 1.969 23.074s6.125 2.091 9.508 5.634V10.486a2.417 2.417 0 1 1 4.834 0v16.937h1.612v-5.648a2.42 2.42 0 0 1 4.841 0v4.034h1.606v-2.416a2.42 2.42 0 1 1 4.841 0v4.03h1.612v-.812a2.417 2.417 0 1 1 4.834 0z"/></g></svg>