<svg xmlns="http://www.w3.org/2000/svg" width="30.762" height="50" viewBox="0 0 30.762 50"><g fill="#363634"><path d="M24.902 23.669H5.858a.73.73 0 0 0-.732.732v11.72a.731.731 0 0 0 .732.733h19.043a.732.732 0 0 0 .732-.733v-11.72a.731.731 0 0 0-.731-.732zM9.887 35.388h-3.3v-1.464h3.3zm0-2.927h-3.3v-1.466h3.3zm0-2.93h-3.3v-1.466h3.3zm0-2.932h-3.3v-1.464h3.3zm4.761 8.79h-3.3v-1.464h3.3zm0-2.927h-3.3v-1.466h3.3zm0-2.93h-3.3v-1.466h3.3zm0-2.932h-3.3v-1.464h3.3zm4.76 8.79h-3.294v-1.464h3.294zm0-2.927h-3.294v-1.466h3.294zm0-2.93h-3.294v-1.466h3.294zm0-2.932h-3.294v-1.464h3.294zm4.763 8.79h-3.3v-4.394h3.3zm0-5.858h-3.3v-1.466h3.3zm0-2.932h-3.3v-1.464h3.3zM6.592 14.149h8.784V12.68H5.854a.731.731 0 0 0-.732.733v2.931a.731.731 0 0 0 .732.733h9.522v-1.466H6.587zm7.093 0h10.491v1.465H13.582l-.08 1.466h11.4a.731.731 0 0 0 .732-.733v-2.931a.731.731 0 0 0-.732-.733H14.233z"/><path d="M30.762 2.196a2.2 2.2 0 0 0-2.2-2.2H16.846a2.2 2.2 0 0 0-2.2 2.2v6.056a2.212 2.212 0 0 0 .125.731H2.193A2.2 2.2 0 0 0 0 11.183v36.625a2.2 2.2 0 0 0 2.193 2.2h26.37a2.2 2.2 0 0 0 2.2-2.2V11.179a2.185 2.185 0 0 1 0-2.928zm-1.466 45.608a.732.732 0 0 1-.733.731H2.193a.732.732 0 0 1-.727-.731v-6.593h22.708v2.2H6.594a.732.732 0 1 0-1.463 0v.732a.727.727 0 0 0 .732.73H24.91a.735.735 0 0 0 .519-.214.747.747 0 0 0 .212-.516v-2.931h3.664zm0-27.835H3.662a.733.733 0 1 0 0 1.466h25.634v18.312H1.466V11.179a.731.731 0 0 1 .727-.73h26.37a.731.731 0 0 1 .733.73zm0-11.718a.732.732 0 0 1-.733.731H16.846a.733.733 0 0 1-.733-.731V2.195a.734.734 0 0 1 .733-.733h11.718a.733.733 0 0 1 .733.733z"/></g></svg>