<svg xmlns="http://www.w3.org/2000/svg" width="48" height="44" viewBox="0 0 48 44"><g fill="#363634"><path d="M46 2v32H2V2h44m0-2H2a2 2 0 0 0-2 2v32a2 2 0 0 0 2 2h44a2 2 0 0 0 2-2V2a2 2 0 0 0-2-2z"/><path d="M27 36v6h-6v-6h6m2-2H19v10h10V34z"/><path d="M36 42H12v2h24v-2zm-9.01-26.01l4.243 9.9 5.657-5.657z"/><path d="M30.8 19.8l2.589 1.11-1.479 1.479L30.8 19.8m-3.81-3.81l4.242 9.9 5.657-5.657-9.9-4.242z"/><path d="M34.768 22.354l-1.414 1.414L37.6 28.01l1.41-1.41-4.243-4.243zM20.333 25h7.333v2h-7.333zM13 27H9v-4h2v2h2zM9 13.667h2v4.667H9zM11 9H9V5h4v2h-2zm9.333-4h7.333v2h-7.333zM39 9h-2V7h-2V5h4zm-2 4.667h2v4.667h-2zM2 30h44v2H2z"/></g></svg>