<svg xmlns="http://www.w3.org/2000/svg" width="32" height="32" viewBox="0 0 32 32">
  <g id="Symbol_19_1" data-name="Symbol 19 – 1" transform="translate(-95 -966)">
    <path id="Rectangle" d="M8.629,0H23.371c3,0,4.088.312,5.185.9A6.116,6.116,0,0,1,31.1,3.443c.587,1.1.9,2.185.9,5.185V23.371c0,3-.312,4.088-.9,5.185A6.116,6.116,0,0,1,28.557,31.1c-1.1.587-2.185.9-5.185.9H8.629c-3,0-4.088-.312-5.185-.9A6.116,6.116,0,0,1,.9,28.557c-.587-1.1-.9-2.185-.9-5.185V8.629c0-3,.312-4.088.9-5.185A6.116,6.116,0,0,1,3.443.9C4.54.312,5.628,0,8.629,0Z" transform="translate(95 966)" fill="#f2eb3b"/>
    <path id="Fill_78" data-name="Fill 78" d="M3.831,3.182A1.533,1.533,0,0,1,5.367,4.709V8.5h3.2V4.709A4.729,4.729,0,0,0,3.831,0H0V3.182Z" transform="translate(115.366 969.311)" fill="#63666a"/>
    <path id="Fill_80" data-name="Fill 80" d="M5.367,3.808A1.53,1.53,0,0,1,3.831,5.328H0V8.5H3.831A4.719,4.719,0,0,0,8.569,3.808V0h-3.2Z" transform="translate(115.366 986.193)" fill="#63666a"/>
    <path id="Fill_82" data-name="Fill 82" d="M3.2,4.708A1.533,1.533,0,0,1,4.738,3.182H8.569V0H4.738A4.729,4.729,0,0,0,0,4.708V8.5H3.2Z" transform="translate(98.339 969.311)" fill="#63666a"/>
    <path id="Fill_84" data-name="Fill 84" d="M4.738,5.329A1.53,1.53,0,0,1,3.2,3.808V0H0V3.808A4.719,4.719,0,0,0,4.738,8.5H8.569V5.329Z" transform="translate(98.339 986.193)" fill="#63666a"/>
    <path id="Fill_86" data-name="Fill 86" d="M6.835,12.69,0,5.907,2.262,3.664,6.835,8.2,15.1,0l2.262,2.244Z" transform="translate(102.456 976.924)" fill="#63666a"/>
  </g>
</svg>
