<svg xmlns="http://www.w3.org/2000/svg" width="40" height="36.904" viewBox="0 0 40 36.904"><path d="M36.499 2.367a1.136 1.136 0 0 1 1.135 1.135V6.32H40V3.502a3.5 3.5 0 0 0-3.5-3.5h-2.83v2.367zm-32.996 0a1.137 1.137 0 0 0-1.137 1.135V6.32H0V3.502a3.506 3.506 0 0 1 3.5-3.5h2.83v2.367zm32.996 32.171a1.137 1.137 0 0 0 1.135-1.136v-2.816H40v2.816a3.5 3.5 0 0 1-3.5 3.5h-2.83v-2.366zm-32.996 0a1.138 1.138 0 0 1-1.137-1.136v-2.816H0v2.816a3.506 3.506 0 0 0 3.5 3.5h2.83v-2.366z" fill="#f2eb3b"/><g fill="#363634"><path d="M32.822 12.176h-4.96v-4.96h4.96zm-5.951 1h6.943V6.232h-6.943zm-11.28 5.599h4.958v4.961h-4.958zm10.91 10.91h-4.959v-4.959h4.959zm-5.951 0h-4.958v-4.959h4.958zm-5.951 0h-4.96v-4.959h4.96zM9.64 18.775h4.96v4.961H9.64zm0-5.951h4.96v4.96H9.64zm11.9 4.96h-5.949v-5.951H8.648v18.845h18.846v-6.942h-5.952z"/><path d="M17.538 12.398l3.435-3.577 3.576 3.437-3.436 3.577zm8.413-.168l-5.005-4.81-4.808 5.005 5 4.812zm-.018 9.616l-1.767-4.635 4.632-1.768 1.768 4.635zm-3.047-5.208l2.474 6.487 6.487-2.473-2.474-6.489z"/></g></svg>