<svg xmlns="http://www.w3.org/2000/svg" width="40" height="36.903" viewBox="0 0 40 36.903"><path d="M36.499 2.367a1.136 1.136 0 0 1 1.135 1.135V6.32H40V3.506a3.5 3.5 0 0 0-3.5-3.5h-2.83v2.367zm-32.996 0a1.138 1.138 0 0 0-1.137 1.139v2.818H0V3.506a3.507 3.507 0 0 1 3.5-3.5h2.83v2.367zm32.996 32.17a1.136 1.136 0 0 0 1.135-1.135v-2.817H40v2.817a3.5 3.5 0 0 1-3.5 3.5h-2.83v-2.366zm-32.996 0a1.137 1.137 0 0 1-1.137-1.135v-2.817H0v2.817a3.506 3.506 0 0 0 3.5 3.5h2.83v-2.366z" fill="#f2eb3b"/><path d="M10.784 8.037l2.1 1.4a.62.62 0 0 0 .695 0l2.717-1.815 2.73 1.815a.618.618 0 0 0 .693 0l2.718-1.809 2.728 1.809a.618.618 0 0 0 .693 0l2.093-1.392v21.387H10.784zm-2.66 22.639h22.427a.626.626 0 0 0 0-1.252h-1.353V6.869a.626.626 0 0 0-.327-.553.615.615 0 0 0-.642.031l-2.718 1.81-2.727-1.815a.622.622 0 0 0-.693 0l-2.718 1.811-2.728-1.816a.62.62 0 0 0-.695 0l-2.718 1.81-2.727-1.817a.649.649 0 0 0-.346-.1.678.678 0 0 0-.3.073.629.629 0 0 0-.327.552l.009 22.556H8.12a.629.629 0 0 0-.627.627.641.641 0 0 0 .627.641" fill="#363634"/><path d="M25.067 20.682H18.51a.626.626 0 1 0 0 1.252h6.557a.626.626 0 0 0 0-1.252m0-2.175h-4.913a.626.626 0 1 0 0 1.251h4.914a.626.626 0 1 0 0-1.251m-9.835 2.175h-1.638a.626.626 0 0 0 0 1.252h1.638a.626.626 0 0 0 0-1.252m0-2.175h-1.638a.626.626 0 0 0 0 1.251h1.638a.626.626 0 1 0 0-1.251m9.834 7.198H18.51a.626.626 0 1 0 0 1.252h6.557a.626.626 0 0 0 0-1.252m0-2.17h-4.913a.626.626 0 1 0 0 1.252h4.914a.626.626 0 0 0 0-1.252m-9.835 2.17h-1.638a.626.626 0 0 0 0 1.252h1.638a.626.626 0 0 0 0-1.252m0-2.17h-1.638a.626.626 0 0 0 0 1.252h1.638a.626.626 0 0 0 0-1.252m9.834-7.939H18.51a.626.626 0 1 0 0 1.252h6.557a.626.626 0 0 0 0-1.252m0-2.17h-4.913a.626.626 0 1 0 0 1.252h4.914a.626.626 0 0 0 0-1.252m-9.835 2.17h-1.638a.626.626 0 0 0 0 1.252h1.638a.626.626 0 0 0 0-1.252m0-2.17h-1.638a.626.626 0 0 0 0 1.252h1.638a.626.626 0 0 0 0-1.252" fill="#363634"/></svg>