<svg xmlns="http://www.w3.org/2000/svg" width="40" height="36.904" viewBox="0 0 40 36.904"><path d="M36.499 2.366a1.137 1.137 0 0 1 1.135 1.136v2.817H40V3.502a3.5 3.5 0 0 0-3.5-3.5h-2.83v2.366zm-32.996 0a1.138 1.138 0 0 0-1.137 1.136v2.817H0V3.502a3.506 3.506 0 0 1 3.5-3.5h2.83v2.366zm32.996 32.172a1.137 1.137 0 0 0 1.135-1.137v-2.816H40v2.816a3.5 3.5 0 0 1-3.5 3.5h-2.83v-2.366zm-32.996 0a1.138 1.138 0 0 1-1.137-1.137v-2.816H0v2.816a3.506 3.506 0 0 0 3.5 3.5h2.83v-2.366z" fill="#f2eb3b"/><path d="M8.584 22.247v-.588h23.032v.588a.933.933 0 0 1-.933.932H9.513a.934.934 0 0 1-.933-.932m.933-14.932h21.171a.933.933 0 0 1 .933.932v12.325H8.584V8.247a.935.935 0 0 1 .933-.932m13.067 18.363h-4.537l.148-1.412h4.239zm-5.48-1.412l-.2 1.9a.541.541 0 0 0 .539.6h5.741a.543.543 0 0 0 .541-.6l-.2-1.9h7.159a2.024 2.024 0 0 0 2.021-2.02v-14a2.023 2.023 0 0 0-2.021-2.018H9.513a2.021 2.021 0 0 0-2.019 2.019v14a2.022 2.022 0 0 0 2.019 2.02zm-6.216 5.324l.508-.977h17.4l.509.977zm19.78.826a.548.548 0 0 0 .019-.533l-1.074-2.065a.544.544 0 0 0-.482-.293H11.064a.543.543 0 0 0-.482.293l-1.074 2.065a.544.544 0 0 0 .483.794h20.213a.543.543 0 0 0 .464-.261" fill="#363634"/><path d="M13.159 14.012l3.707-3.09-.7-.834-4.207 3.507a.543.543 0 0 0-.069.764.548.548 0 0 0 .069.07l4.207 3.507.7-.835zm15.233-.348a.534.534 0 0 0-.069-.069l-4.209-3.507-.693.834 3.706 3.09-3.706 3.089.693.835 4.209-3.507a.544.544 0 0 0 .069-.765" fill="#363634"/></svg>