<svg xmlns="http://www.w3.org/2000/svg" width="40" height="36.904" viewBox="0 0 40 36.904"><path d="M36.499 2.366a1.136 1.136 0 0 1 1.135 1.135v2.818H40V3.501a3.5 3.5 0 0 0-3.5-3.5h-2.83v2.366zm-32.996 0a1.138 1.138 0 0 0-1.137 1.135v2.818H0V3.501a3.506 3.506 0 0 1 3.5-3.5h2.83v2.366zm32.996 32.171a1.136 1.136 0 0 0 1.135-1.134v-2.818H40v2.818a3.5 3.5 0 0 1-3.5 3.5h-2.83v-2.366zm-32.996 0a1.137 1.137 0 0 1-1.137-1.134v-2.818H0v2.818a3.505 3.505 0 0 0 3.5 3.5h2.83v-2.366z" fill="#f2eb3b"/><g fill="#363634"><path d="M32.484 25.657c-.432-1.214-2.122-5.4-2.535-6.562v-5.738a1.2 1.2 0 0 0-1.2-1.2h-2.508v-1.289h2.113a1.112 1.112 0 0 0 1.111-1.111v-2.42a1.112 1.112 0 0 0-1.111-1.111h-7.58a1.111 1.111 0 0 0-1.11 1.111v2.421a1.111 1.111 0 0 0 1.11 1.111h2.11v1.289h-4.6V10.43a.515.515 0 0 0-.318-.476l-1.482-.617a.519.519 0 0 0-.4 0l-.549.228-.745.309-1.292-.537a.515.515 0 0 0-.713.476v2.347h-1.529a1.2 1.2 0 0 0-1.2 1.2v5.738c-.413 1.158-2.1 5.349-2.535 6.562a.5.5 0 0 0-.031.173v4.332a.516.516 0 0 0 .516.516h23.989a.515.515 0 0 0 .515-.516v-4.332a.517.517 0 0 0-.026-.176zm-11.71-15.82a.077.077 0 0 1-.078-.078V7.337a.079.079 0 0 1 .078-.079h7.58a.079.079 0 0 1 .078.079v2.421a.077.077 0 0 1-.078.078h-7.58zm4.435 1.032v1.289h-1.29v-1.289h1.29zm-11.39-.285l.778.322a.51.51 0 0 0 .4 0l.546-.226.747-.311.973.406v4.633H13.82zm-2.729 2.771a.167.167 0 0 1 .166-.166h1.533v2.734a.516.516 0 0 0 .516.516h4.471a.516.516 0 0 0 .515-.516v-2.734h10.455a.166.166 0 0 1 .166.166v5.3H11.091zm-.148 6.334h18.12c.39 1.077 1.851 4.7 2.2 5.622H8.746c.338-.923 1.805-4.543 2.197-5.62zm20.536 9.955H8.525v-3.3h22.954z"/><path d="M28.401 23.668l.114.288a.516.516 0 1 0 .958-.382l-.114-.287a.516.516 0 0 0-.958.381zm-.778-1.952a.517.517 0 0 0 .48.325.534.534 0 0 0 .191-.036.518.518 0 0 0 .289-.671l-.115-.288a.516.516 0 1 0-.958.382zm-1.457 1.908l.087.287a.515.515 0 0 0 .494.369.49.49 0 0 0 .147-.023.515.515 0 0 0 .347-.641l-.087-.287a.517.517 0 1 0-.989.3zm-.584-1.952a.516.516 0 0 0 .494.369.527.527 0 0 0 .149-.022.515.515 0 0 0 .345-.641l-.084-.288a.517.517 0 1 0-.989.3zm-1.649 1.906l.057.288a.516.516 0 0 0 .5.415.469.469 0 0 0 .1-.01.515.515 0 0 0 .406-.606l-.056-.288a.516.516 0 0 0-1.013.2zm.117-1.537a.548.548 0 0 0 .1-.009.517.517 0 0 0 .406-.607l-.057-.288a.516.516 0 0 0-1.012.2l.057.288a.515.515 0 0 0 .506.416zm-2.343 1.488l.028.288a.516.516 0 0 0 .512.464.43.43 0 0 0 .052 0 .517.517 0 0 0 .463-.564l-.029-.293a.516.516 0 0 0-1.026.1zm.319-1.489a.423.423 0 0 0 .051 0 .515.515 0 0 0 .462-.564l-.028-.287a.516.516 0 1 0-1.027.1l.029.288a.515.515 0 0 0 .513.463zm-2.025 2.241a.516.516 0 0 0 .516-.515v-.288a.516.516 0 1 0-1.032 0v.288a.516.516 0 0 0 .516.515zm0-2.24a.516.516 0 0 0 .516-.515v-.287a.516.516 0 1 0-1.032 0v.287a.516.516 0 0 0 .516.515zm-2.299 2.237a.449.449 0 0 0 .052 0 .517.517 0 0 0 .513-.465l.029-.287a.517.517 0 0 0-1.028-.1l-.027.288a.514.514 0 0 0 .461.564zm.223-2.24a.429.429 0 0 0 .051 0 .516.516 0 0 0 .513-.465l.028-.287a.515.515 0 1 0-1.025-.1l-.029.288a.515.515 0 0 0 .462.564zm-1.914 1.828l.057-.288a.516.516 0 0 0-1.012-.2l-.056.289a.516.516 0 0 0 .4.606.562.562 0 0 0 .1.009.514.514 0 0 0 .511-.416zm-.161-1.834a.553.553 0 0 0 .1.009.515.515 0 0 0 .5-.415l.057-.288a.516.516 0 0 0-1.012-.2l-.056.289a.515.515 0 0 0 .411.605zm-2.36.952a.515.515 0 0 0-.641.347l-.087.287a.516.516 0 0 0 .347.641.482.482 0 0 0 .148.023.516.516 0 0 0 .494-.369l.086-.287a.517.517 0 0 0-.347-.642zm.67-2.24a.516.516 0 0 0-.642.347l-.087.287a.517.517 0 1 0 .99.3l.086-.288a.515.515 0 0 0-.347-.646zM11.314 23a.513.513 0 0 0-.669.288l-.115.288a.515.515 0 0 0 .288.669.5.5 0 0 0 .192.036.515.515 0 0 0 .479-.325l.114-.288a.514.514 0 0 0-.289-.668zm.892-2.241a.515.515 0 0 0-.669.288l-.114.288a.515.515 0 0 0 .288.671.534.534 0 0 0 .191.036.515.515 0 0 0 .479-.325l.115-.288a.517.517 0 0 0-.29-.67zm9.558-3.131h5.6a.516.516 0 0 0 .515-.516v-2.373a.514.514 0 0 0-.515-.515h-5.6a.515.515 0 0 0-.515.515v2.373a.516.516 0 0 0 .515.516zm.516-2.373h4.569v1.341h-4.57zm-5.734-2.386a.516.516 0 0 0-.516-.516h-.979a.516.516 0 1 0 0 1.032h.979a.517.517 0 0 0 .516-.516z"/></g></svg>