<svg xmlns="http://www.w3.org/2000/svg" width="40" height="36.904" viewBox="0 0 40 36.904"><path d="M36.499 2.366a1.136 1.136 0 0 1 1.135 1.135v2.818H40V3.501a3.5 3.5 0 0 0-3.5-3.5h-2.83v2.366zm-32.996 0a1.138 1.138 0 0 0-1.137 1.135v2.818H0V3.501a3.506 3.506 0 0 1 3.5-3.5h2.83v2.366zm32.996 32.17a1.136 1.136 0 0 0 1.135-1.135v-2.817H40v2.818a3.5 3.5 0 0 1-3.5 3.5h-2.83v-2.367zm-32.996 0a1.138 1.138 0 0 1-1.137-1.135v-2.817H0v2.818a3.507 3.507 0 0 0 3.5 3.5h2.83v-2.367z" fill="#f2eb3b"/><path d="M19.334 17.688a.478.478 0 1 0 .478.478.478.478 0 0 0-.478-.478" fill="#363634"/><path d="M26.974 25.902h-1.432a1.913 1.913 0 0 0-1.911 1.909 1.91 1.91 0 1 1-3.82 0h.478a2.39 2.39 0 0 0 2.388-2.388v-4.838l.89-5.787a4.3 4.3 0 0 0-.412-8.575h-7.642a4.3 4.3 0 0 0-.413 8.575l.891 5.787v4.833a2.389 2.389 0 0 0 2.387 2.388h.478a2.865 2.865 0 0 0 5.73 0 .957.957 0 0 1 .956-.955h1.432a.477.477 0 1 0 0-.954zm-11.46-12.033a3.343 3.343 0 1 1 0-6.685h7.641a3.343 3.343 0 0 1 0 6.685h-7.642zm.557.954h2.785v1.433a.478.478 0 0 0 .955 0v-1.433h2.785l-.807 5.253h-4.912zm3.265 12.033h-.955a1.434 1.434 0 0 1-1.433-1.433v-4.392h4.776v4.392a1.435 1.435 0 0 1-1.433 1.433z" fill="#363634"/><path d="M23.154 9.091h-7.64a1.433 1.433 0 1 0 0 2.866h7.64a1.433 1.433 0 0 0 0-2.866zm0 1.91h-7.64a.478.478 0 1 1 0-.955h7.64a.478.478 0 0 1 0 .955z" fill="#363634"/></svg>