<svg xmlns="http://www.w3.org/2000/svg" width="41" height="44" viewBox="0 0 41 44"><path fill="#CCC" d="M3.543 0C1.878 0 .506 1.355.506 3v2.832a.893.893 0 0 0 0 .324v30.676a.893.893 0 0 0 0 .324V41c0 1.645 1.372 3 3.037 3H23.79c1.665 0 3.037-1.355 3.037-3v-3.832a.893.893 0 0 0 0-.324V6.168a.893.893 0 0 0 0-.324V3c0-1.645-1.372-3-3.037-3H3.543zm0 2H23.79c.562 0 1.012.445 1.012 1v2H2.531V3c0-.555.45-1 1.012-1zM2.531 7h22.271v29H2.531V7zm33.04 2.363l-1.436 1.418c2.962 2.656 4.84 6.465 4.84 10.719 0 3.996-1.653 7.617-4.31 10.242l1.42 1.403C39.114 30.16 41 26.05 41 21.5c0-4.805-2.104-9.117-5.43-12.137zm-4.295 4.242l-1.443 1.426c1.87 1.555 3.068 3.871 3.068 6.469 0 2.344-.98 4.453-2.539 5.992l1.432 1.414c1.926-1.898 3.132-4.511 3.132-7.406 0-3.148-1.42-5.969-3.65-7.895zM2.53 38h22.271v3c0 .555-.45 1-1.012 1H3.543a1.003 1.003 0 0 1-1.012-1v-3zm8.099 1a1.021 1.021 0 0 0-.89.496.999.999 0 0 0 0 1.008c.186.312.526.5.89.496h6.074c.364.004.704-.184.89-.496a.999.999 0 0 0 0-1.008 1.021 1.021 0 0 0-.89-.496H10.63z"/></svg>