<svg xmlns="http://www.w3.org/2000/svg" width="23.999" height="23.999" viewBox="0 0 23.999 23.999"><defs><linearGradient id="a" x1=".5" x2=".5" y2=".5" gradientUnits="objectBoundingBox"><stop offset="0" stop-color="#f2eb3b" stop-opacity="0"/><stop offset="1" stop-color="#f2eb3b"/></linearGradient></defs><path d="M-8778 24a11.919 11.919 0 0 1-8.484-3.514A11.923 11.923 0 0 1-8790 12a11.925 11.925 0 0 1 3.517-8.486A11.919 11.919 0 0 1-8778 0v2a10.011 10.011 0 0 0-10 10 10.01 10.01 0 0 0 10 10 10.009 10.009 0 0 0 10-10h2a11.929 11.929 0 0 1-3.514 8.486A11.926 11.926 0 0 1-8778 24z" transform="translate(8790.001)" fill="url(#a)"/></svg>